# xmcd CD database file
#
# Track frame offsets:
#	150
#	20382
#	38840
#	57692
#	80795
#	102082
#	122045
#	144762
#	161252
#	184702
#	200992
#	223257
#
# Disc length: 3262 seconds
#
# Revision: 4
# Processed by: cddbd v1.5.1PL2 Copyright (c) Steve Scherf et al.
# Submitted via: CDex 1.51
#
DISCID=ac0cbc0c
DTITLE=koda kumi - feel my mind
DYEAR=2004
DGENRE=R&B
TTITLE0=Break it down
TTITLE1=Crazy 4 U
TTITLE2=Rock Your Body
TTITLE3=Rain
TTITLE4=Without Your Love
TTITLE5=Talk to you
TTITLE6=華
TTITLE7=Get Out The Way
TTITLE8=Sweet love...
TTITLE9=Gentle Words
TTITLE10=magic
TTITLE11=COME WITH ME
EXTD=YEAR: 2004
EXTT0=
EXTT1=
EXTT2=
EXTT3=
EXTT4=
EXTT5=
EXTT6=
EXTT7=
EXTT8=
EXTT9=
EXTT10=
EXTT11=
PLAYORDER=
